<?xml version="1.0" encoding="UTF-8"?>
<svg width="24px" height="24px" viewBox="0 0 24 24" version="1.1" xmlns="http://www.w3.org/2000/svg" xmlns:xlink="http://www.w3.org/1999/xlink">
    <!-- Generator: Sketch 56.3 (81716) - https://sketch.com -->
    <title>Drag</title>
    <desc>Created with Sketch.</desc>
    <g id="Drag" stroke="none" stroke-width="1" fill="none" fill-rule="evenodd">
        <path d="M7,19 L7,17 L9,17 L9,19 L7,19 L7,19 Z M11,19 L11,17 L13,17 L13,19 L11,19 L11,19 Z M15,19 L15,17 L17,17 L17,19 L15,19 L15,19 Z M7,15 L7,13 L9,13 L9,15 L7,15 L7,15 Z M11,15 L11,13 L13,13 L13,15 L11,15 L11,15 Z M15,15 L15,13 L17,13 L17,15 L15,15 L15,15 Z M7,11 L7,9 L9,9 L9,11 L7,11 L7,11 Z M11,11 L11,9 L13,9 L13,11 L11,11 L11,11 Z M15,11 L15,9 L17,9 L17,11 L15,11 L15,11 Z M7,7 L7,5 L9,5 L9,7 L7,7 L7,7 Z M11,7 L11,5 L13,5 L13,7 L11,7 L11,7 Z M15,7 L15,5 L17,5 L17,7 L15,7 Z" id="Shape" fill="#4A4A4A" fill-rule="nonzero"></path>
    </g>
</svg>