<?xml version="1.0" encoding="UTF-8"?>
<svg width="24px" height="24px" viewBox="0 0 24 24" version="1.1" xmlns="http://www.w3.org/2000/svg" xmlns:xlink="http://www.w3.org/1999/xlink">
    <!-- Generator: Sketch 56.3 (81716) - https://sketch.com -->
    <title>Settings</title>
    <desc>Created with Sketch.</desc>
    <g id="Settings" stroke="none" stroke-width="1" fill="none" fill-rule="evenodd">
        <path d="M12.0013624,14.1 C10.8090284,14.1 9.84245066,13.159798 9.84245066,12 C9.84245066,10.840202 10.8090284,9.9 12.0013624,9.9 C13.1936965,9.9 14.1602742,10.840202 14.1602742,12 C14.1602742,13.159798 13.1936965,14.1 12.0013624,14.1 L12.0013624,14.1 Z M16.5844237,12.582 C16.609097,12.39 16.6276019,12.198 16.6276019,12 C16.6276019,11.802 16.609097,11.604 16.5844237,11.4 L17.8859391,10.422 C18.0031371,10.332 18.0339787,10.17 17.9599589,10.038 L16.726295,7.962 C16.6522752,7.83 16.4857306,7.776 16.3500276,7.83 L14.814116,8.43 C14.4933634,8.196 14.1602742,7.992 13.7716701,7.842 L13.5434423,6.252 C13.518769,6.108 13.3892343,6 13.2350263,6 L10.7676986,6 C10.6134906,6 10.4839559,6.108 10.4592826,6.252 L10.2310548,7.842 C9.84245066,7.992 9.50936141,8.196 9.18860881,8.43 L7.65269729,7.83 C7.51699427,7.776 7.35044965,7.83 7.27642981,7.962 L6.04276595,10.038 C5.9625778,10.17 5.99958771,10.332 6.11678578,10.422 L7.41830116,11.4 C7.39362788,11.604 7.37512292,11.802 7.37512292,12 C7.37512292,12.198 7.39362788,12.39 7.41830116,12.582 L6.11678578,13.578 C5.99958771,13.668 5.9625778,13.83 6.04276595,13.962 L7.27642981,16.038 C7.35044965,16.17 7.51699427,16.218 7.65269729,16.17 L9.18860881,15.564 C9.50936141,15.804 9.84245066,16.008 10.2310548,16.158 L10.4592826,17.748 C10.4839559,17.892 10.6134906,18 10.7676986,18 L13.2350263,18 C13.3892343,18 13.518769,17.892 13.5434423,17.748 L13.7716701,16.158 C14.1602742,16.002 14.4933634,15.804 14.814116,15.564 L16.3500276,16.17 C16.4857306,16.218 16.6522752,16.17 16.726295,16.038 L17.9599589,13.962 C18.0339787,13.83 18.0031371,13.668 17.8859391,13.578 L16.5844237,12.582 Z" id="Shape" fill="#4A4A4A" fill-rule="nonzero"></path>
    </g>
</svg>